<?xml version="1.0" standalone="no"?>
<!DOCTYPE svg PUBLIC "-//W3C//DTD SVG 20010904//EN"
 "http://www.w3.org/TR/2001/REC-SVG-20010904/DTD/svg10.dtd">
<svg version="1.0" xmlns="http://www.w3.org/2000/svg"
 width="2000.000000pt" height="2000.000000pt" viewBox="0 0 2000.000000 2000.000000"
 preserveAspectRatio="xMidYMid meet">

<g transform="translate(0.000000,2000.000000) scale(0.100000,-0.100000)"
fill="#000000" stroke="none">
<path d="M9948 16844 c-23 -20 -59 -53 -78 -73 -19 -20 -66 -65 -105 -101 -38
-35 -151 -141 -250 -235 -99 -94 -247 -234 -330 -311 -82 -76 -202 -188 -265
-249 -64 -60 -169 -159 -235 -220 -66 -60 -140 -130 -165 -155 -25 -25 -88
-84 -140 -132 -52 -47 -134 -123 -181 -169 -92 -90 -147 -142 -389 -369 -186
-175 -283 -266 -500 -470 -91 -85 -199 -186 -240 -225 -41 -38 -127 -119 -190
-180 -102 -98 -177 -168 -524 -495 -50 -47 -129 -121 -176 -166 -47 -44 -148
-138 -225 -208 -77 -71 -151 -141 -165 -156 -14 -15 -101 -99 -195 -186 -354
-329 -555 -526 -555 -544 0 -10 12 -28 27 -40 29 -22 59 -21 118 5 17 7 64 27
106 44 42 18 118 56 169 86 51 30 94 55 97 55 2 0 49 29 103 65 102 68 231
177 410 349 137 133 199 191 490 462 135 126 256 240 270 254 52 51 402 384
646 612 137 129 270 254 295 279 24 24 222 210 439 413 217 203 411 385 430
405 20 20 69 67 110 105 41 38 145 135 230 216 85 80 191 179 235 220 44 41
96 90 115 110 19 19 100 96 180 170 80 74 168 158 196 185 28 28 102 97 164
155 62 58 122 114 132 125 17 18 21 18 43 5 13 -8 178 -161 367 -340 492 -467
761 -718 913 -855 49 -44 114 -103 144 -131 92 -83 110 -94 156 -94 77 0 143
66 144 145 0 51 -29 93 -129 181 -67 60 -184 170 -545 514 -157 149 -426 403
-520 490 -44 40 -120 112 -170 159 -49 48 -150 142 -222 209 -153 141 -164
145 -235 86z"/>
<path d="M11993 14948 c-78 -25 -118 -116 -85 -191 21 -48 34 -62 147 -167 44
-40 118 -110 165 -155 114 -109 464 -433 557 -517 79 -70 115 -86 172 -73 37
8 97 72 106 114 16 74 -15 113 -290 367 -142 130 -325 301 -548 512 -91 86
-146 124 -179 121 -7 -1 -27 -6 -45 -11z"/>
<path d="M8530 14696 c-41 -6 -101 -23 -132 -38 -67 -31 -152 -107 -179 -160
-13 -25 -26 -38 -40 -38 -11 0 -35 -7 -54 -14 -29 -12 -35 -20 -35 -45 0 -16
5 -33 10 -36 18 -11 11 -40 -25 -95 -39 -62 -43 -99 -16 -144 10 -17 22 -49
26 -70 3 -22 17 -61 30 -86 20 -40 22 -52 14 -86 -18 -69 -32 -197 -31 -277 1
-118 17 -176 61 -229 20 -25 45 -68 55 -94 10 -27 26 -71 37 -98 10 -27 19
-57 19 -67 0 -28 46 -127 75 -161 21 -25 25 -40 25 -94 0 -36 -4 -64 -10 -64
-5 0 -10 9 -10 20 0 32 -41 45 -78 26 -17 -9 -59 -27 -94 -40 -136 -51 -302
-126 -322 -145 -12 -11 -55 -39 -96 -62 l-75 -43 -160 -1 c-227 -2 -324 -35
-437 -151 -70 -72 -124 -172 -203 -379 -89 -230 -116 -283 -190 -365 -73 -81
-89 -113 -143 -276 -27 -82 -43 -155 -52 -234 -7 -63 -28 -175 -46 -249 -54
-211 -45 -328 30 -402 35 -35 61 -39 326 -51 315 -14 337 -14 504 6 170 20
167 21 185 -59 7 -27 19 -79 29 -115 25 -99 21 -235 -9 -297 -21 -43 -24 -67
-30 -218 -3 -93 -12 -188 -19 -210 -7 -22 -18 -96 -24 -165 -7 -69 -20 -138
-28 -155 -36 -71 -123 -408 -163 -630 -9 -49 -22 -121 -31 -160 -18 -86 -32
-185 -43 -291 -5 -45 -11 -86 -14 -91 -11 -18 -11 -488 0 -523 6 -19 14 -73
18 -120 5 -68 16 -111 56 -215 27 -71 61 -152 75 -180 16 -33 25 -65 24 -95
-8 -517 -9 -534 -41 -740 -12 -80 -67 -397 -79 -450 -5 -25 -9 -70 -10 -101 0
-31 -4 -69 -10 -85 -6 -17 -11 -216 -13 -474 -3 -287 -8 -454 -15 -471 -6 -15
-14 -58 -17 -97 -10 -94 -13 -99 -65 -83 -39 11 -45 10 -93 -15 -29 -15 -113
-58 -187 -96 -74 -38 -142 -76 -152 -85 -9 -8 -54 -21 -100 -29 -46 -8 -117
-25 -158 -38 -41 -14 -122 -34 -180 -46 -219 -46 -310 -107 -310 -210 0 -65
25 -95 98 -116 31 -9 74 -23 95 -31 31 -11 103 -12 390 -8 194 4 374 11 401
16 27 5 135 9 240 9 158 0 195 -3 214 -16 34 -24 138 -14 379 35 133 28 149
34 168 70 13 25 14 42 5 94 -5 35 -14 77 -19 93 -50 161 -44 408 14 589 15 44
37 116 50 160 13 44 49 147 80 229 67 179 139 423 155 526 7 49 10 169 7 345
-4 249 -12 352 -30 382 -4 6 -12 45 -17 86 l-11 75 50 126 c28 70 55 146 62
169 6 23 35 105 64 182 71 185 86 239 116 415 5 30 13 75 18 100 5 25 18 99
30 165 11 66 27 161 36 210 14 77 15 104 4 185 -6 52 -16 113 -21 135 -24 100
-56 332 -50 358 5 20 35 23 49 5 6 -7 16 -65 22 -128 7 -63 16 -137 21 -165 5
-27 21 -122 36 -210 40 -239 95 -439 177 -642 60 -149 246 -483 300 -539 17
-17 21 -36 22 -90 1 -76 22 -128 87 -220 20 -28 44 -66 53 -85 10 -19 31 -51
48 -72 l30 -39 8 -301 c4 -166 12 -331 19 -367 10 -59 59 -239 79 -293 5 -12
14 -40 21 -62 26 -87 75 -214 115 -300 23 -49 46 -101 50 -115 4 -14 11 -29
15 -35 23 -30 112 -253 134 -336 22 -83 26 -117 27 -270 2 -126 -2 -192 -13
-239 -10 -43 -13 -94 -10 -153 l5 -87 348 0 349 0 1 58 c0 31 2 74 5 94 5 40
-14 119 -49 205 l-21 53 32 97 c30 96 55 204 87 373 21 111 57 233 156 520
161 470 198 588 210 656 7 40 12 158 11 284 -1 191 1 220 18 255 10 22 22 54
26 70 3 17 28 68 54 115 70 125 209 397 232 455 11 28 32 97 48 155 15 58 47
164 70 235 58 182 139 506 140 564 0 3 5 -1 10 -9 5 -8 12 -40 15 -70 19 -174
196 -760 278 -916 14 -27 53 -105 86 -175 34 -69 78 -150 98 -180 45 -69 72
-127 73 -158 0 -14 -12 -54 -26 -89 -58 -144 -111 -402 -121 -583 -5 -106 -4
-122 19 -195 14 -43 36 -117 49 -164 12 -47 33 -110 47 -140 13 -30 35 -86 49
-125 30 -82 124 -297 193 -440 57 -119 120 -270 120 -289 0 -7 10 -35 21 -62
19 -43 21 -57 13 -143 -10 -127 -7 -316 6 -341 20 -37 257 -88 325 -69 22 6
105 6 236 -1 111 -5 351 -10 534 -10 360 0 413 6 530 62 l50 23 3 60 3 60 -77
43 c-43 23 -98 49 -123 57 -99 33 -298 88 -331 93 -19 2 -114 41 -210 87 -354
167 -412 190 -457 179 -51 -13 -69 2 -97 78 -14 40 -31 99 -36 131 -5 33 -10
395 -10 825 -1 608 -4 784 -15 847 -8 44 -21 118 -30 165 -31 172 -30 274 3
415 6 22 15 65 22 95 7 30 16 73 21 95 23 105 33 263 34 535 0 374 -13 592
-45 715 -24 96 -72 336 -80 405 -5 41 -10 188 -12 325 l-3 250 56 -3 c62 -4
99 10 138 52 33 35 22 53 -40 61 -36 5 -59 15 -75 32 -27 30 -76 147 -68 166
6 16 14 20 179 97 237 111 344 192 621 467 l189 187 -1 120 c-1 136 -4 146
-78 236 -43 52 -187 243 -321 423 -57 77 -380 422 -437 466 -15 12 -60 63 -99
114 -102 129 -261 281 -329 314 -42 20 -91 30 -205 45 -82 10 -163 23 -180 29
-164 58 -209 100 -219 202 -2 25 -7 50 -10 56 -4 6 -7 44 -7 86 0 72 1 76 38
121 75 91 82 96 111 89 28 -7 119 -69 138 -94 15 -20 37 -181 29 -213 -4 -15
-2 -29 4 -33 13 -7 152 71 192 109 125 116 178 255 157 411 -13 101 -54 177
-153 286 -47 52 -98 121 -115 153 -28 56 -30 65 -30 180 0 162 -32 309 -97
442 -70 144 -145 204 -316 253 -92 26 -124 31 -220 31 -196 0 -277 -22 -373
-102 -39 -32 -53 -38 -94 -38 -27 0 -52 5 -55 10 -3 6 -15 10 -26 10 -14 0
-26 -15 -43 -53 -20 -47 -85 -117 -108 -117 -4 0 -51 -29 -106 -64 -213 -138
-284 -279 -236 -467 14 -54 14 -72 3 -138 -19 -112 -14 -171 20 -244 29 -61
55 -88 133 -136 21 -12 47 -34 57 -48 29 -36 52 -26 83 37 47 96 120 138 161
92 9 -10 27 -59 41 -110 27 -100 73 -187 130 -241 l36 -35 0 -167 c0 -145 -2
-170 -18 -189 -25 -31 -120 -48 -297 -54 -199 -7 -257 -27 -361 -123 -56 -52
-100 -111 -124 -169 -19 -44 -21 -64 -18 -224 3 -174 3 -176 -31 -285 -56
-186 -164 -404 -213 -432 -17 -11 -29 -28 -33 -49 -3 -18 -17 -54 -32 -79 -24
-43 -25 -53 -21 -136 4 -68 11 -100 30 -137 55 -106 123 -206 182 -265 34 -34
124 -126 199 -204 l138 -142 -7 -93 c-3 -51 -12 -112 -20 -134 -7 -23 -16 -77
-20 -120 -3 -44 -33 -194 -66 -334 -112 -475 -135 -591 -150 -755 -15 -167
-21 -574 -9 -635 6 -30 13 -134 16 -230 8 -235 31 -424 63 -510 28 -76 56
-242 55 -320 -1 -36 -5 -132 -8 -213 l-7 -149 -75 -146 c-90 -175 -122 -232
-133 -232 -4 0 -20 35 -36 78 -15 42 -41 111 -57 152 -16 41 -48 129 -70 195
l-41 120 -1 275 c0 151 2 399 4 550 2 173 -1 305 -8 355 -7 44 -16 125 -21
180 -4 55 -14 134 -20 175 -6 41 -15 100 -20 130 -21 149 -61 304 -244 940
-86 297 -125 414 -157 468 -23 40 -24 71 -4 119 17 41 20 223 5 288 -5 22 -12
87 -16 145 l-6 105 49 65 c98 128 96 131 -55 125 -106 -5 -114 -4 -87 9 17 8
73 19 125 26 52 7 106 16 120 21 27 10 151 131 294 287 170 186 210 253 283
487 47 149 62 278 79 685 7 177 -7 255 -67 377 -37 75 -50 91 -118 144 -104
81 -159 101 -291 103 -121 3 -149 14 -203 76 -28 33 -158 130 -173 130 -6 0
-159 93 -172 105 -9 8 -13 40 -14 96 0 78 3 89 39 159 21 41 45 93 52 114 7
22 36 73 64 114 44 66 51 84 60 153 13 99 1 146 -44 172 l-31 17 5 153 c4 83
11 169 17 189 28 98 -50 308 -135 364 -21 14 -26 14 -54 0 -16 -9 -34 -16 -39
-16 -5 0 -26 27 -47 61 -38 62 -76 89 -127 89 -13 0 -60 16 -106 35 -45 18
-108 36 -140 40 -31 3 -70 7 -87 9 -16 2 -64 -1 -105 -8z m-1058 -2844 c-4
-84 -1 -108 18 -160 12 -34 30 -68 39 -76 27 -24 141 -56 203 -56 32 0 102 -8
156 -17 80 -14 163 -17 467 -18 337 0 372 2 395 18 13 9 32 17 41 17 9 0 52
31 95 68 181 156 205 168 349 183 55 5 128 15 163 21 35 6 66 8 69 4 10 -9
-47 -65 -87 -86 -20 -10 -53 -22 -74 -26 -65 -12 -167 -53 -205 -81 -70 -54
-84 -69 -138 -149 -29 -45 -60 -88 -69 -95 -19 -16 -177 -30 -379 -33 -164 -3
-368 14 -460 39 -27 7 -77 19 -110 25 -33 7 -71 18 -85 25 -49 25 -155 47
-248 51 -77 4 -101 1 -137 -15 -54 -24 -99 -83 -115 -151 -14 -60 -9 -88 26
-130 34 -39 26 -47 -23 -22 -46 24 -83 84 -83 136 0 23 17 69 49 131 48 94 49
97 56 213 4 71 14 141 26 177 19 61 44 105 57 105 4 0 6 -44 4 -98z m208 -634
c62 -34 143 -86 213 -135 168 -118 342 -233 392 -260 30 -15 55 -31 55 -35 0
-18 -95 -6 -168 21 -104 38 -194 84 -367 186 -158 93 -242 138 -300 161 l-40
16 25 12 c14 6 39 20 55 32 54 38 70 38 135 2z m2963 -198 c11 -25 46 -85 76
-135 97 -157 103 -174 97 -290 -3 -55 -8 -133 -12 -173 -6 -71 -7 -73 -43 -97
-21 -13 -78 -67 -127 -120 -49 -53 -99 -98 -111 -101 -30 -8 -83 20 -130 69
-60 61 -180 224 -209 283 -32 66 -25 84 61 160 44 39 91 95 136 164 89 136
101 153 153 225 24 33 49 71 56 85 l13 25 10 -25 c6 -14 19 -45 30 -70z m1933
-56 c58 -54 228 -183 324 -247 151 -101 160 -108 160 -126 0 -9 -21 -42 -48
-72 -26 -29 -61 -74 -77 -99 -17 -25 -51 -66 -76 -92 -26 -25 -49 -57 -52 -70
-6 -23 -171 -236 -226 -291 -16 -16 -47 -33 -71 -38 l-43 -10 -112 114 c-62
62 -119 126 -127 143 -9 16 -18 63 -22 104 -6 74 -5 80 50 235 57 160 77 227
89 298 5 29 14 43 43 61 20 13 56 46 80 75 24 28 49 51 56 51 8 0 31 -16 52
-36z m-4008 -248 c50 -21 103 -38 282 -91 25 -7 83 -25 130 -40 47 -15 93 -29
103 -32 9 -3 17 -9 17 -14 0 -11 9 -12 -85 6 -44 9 -132 25 -195 36 -142 24
-157 29 -252 93 -105 70 -105 86 0 42z"/>
<path d="M13652 13321 c-40 -30 -45 -38 -57 -98 -10 -53 24 -100 177 -243 78
-74 176 -167 216 -207 l72 -72 0 -110 0 -109 -35 -42 -35 -42 -1 -106 c0 -59
0 -1832 -1 -3941 0 -3242 2 -3835 13 -3842 19 -12 280 -11 299 1 13 8 15 462
17 3972 1 2180 3 3966 3 3971 0 18 36 3 108 -46 130 -89 266 -161 460 -243 69
-29 112 -16 112 35 0 30 -6 40 -34 59 -19 13 -54 45 -78 70 -24 26 -100 99
-168 163 -69 63 -190 176 -269 250 -79 74 -181 167 -225 208 -45 41 -145 136
-224 210 -79 75 -162 148 -184 164 -57 38 -111 37 -166 -2z"/>
<path d="M5933 12387 c-12 -7 -41 -39 -63 -72 -23 -33 -60 -79 -82 -101 l-40
-42 0 -3826 c0 -2105 2 -3830 6 -3833 12 -13 272 -16 294 -4 l22 12 0 3912
c-1 3059 -3 3915 -13 3928 -29 37 -83 49 -124 26z"/>
</g>
</svg>
